<svg xmlns="http://www.w3.org/2000/svg" xmlns:xlink="http://www.w3.org/1999/xlink" width="399" height="80" viewBox="0 0 399 80"><defs><style>.a{fill:#5b3d8b;}.b,.c,.d{fill:#fff;}.b{mix-blend-mode:multiply;isolation:isolate;}.c{font-size:10px;font-family:Montserrat-Light, Montserrat;font-weight:300;}.e{fill:#9b88b8;}.f{filter:url(#a);}</style><filter id="a" x="0" y="0" width="399" height="80" filterUnits="userSpaceOnUse"><feOffset dy="-5" input="SourceAlpha"/><feGaussianBlur stdDeviation="4" result="b"/><feFlood flood-opacity="0.251"/><feComposite operator="in" in2="b"/><feComposite in="SourceGraphic"/></filter></defs><g transform="translate(12 17)"><g class="f" transform="matrix(1, 0, 0, 1, -12, -17)"><rect class="a" width="375" height="56" transform="translate(12 17)"/></g><g transform="translate(8)"><rect class="b" width="90" height="56"/><text class="c" transform="translate(45 45)"><tspan x="-42.54" y="0">Carteira genética</tspan></text><g transform="translate(-1426.812 -759.296)"><g transform="translate(1461.124 768.609)"><path class="d" d="M1468.745,782.882l.008,0a5.8,5.8,0,0,1-.081-.924c0-.2.01-.388.03-.579l-.292-.062c-.069-.319-.133-.63-.187-.933l.559.459a5.776,5.776,0,0,1,.171-.665l-.853-.7a5.106,5.106,0,0,1,.019-1.135l1.16,1.045a5.758,5.758,0,0,1,.313-.555l-1.307-1.177a3.045,3.045,0,0,1,.53-.917l1.348,1.348a5.777,5.777,0,0,1,.44-.44l-1.348-1.348a3.029,3.029,0,0,1,.918-.53l1.177,1.306a5.91,5.91,0,0,1,.556-.313l-1.044-1.159a5.114,5.114,0,0,1,1.136-.018l.7.851a5.737,5.737,0,0,1,.665-.171l-.458-.557c.3.054.611.117.928.186.021.1.042.195.062.291a5.5,5.5,0,0,1,1.5.051l0-.007.16.031c.035.007.071.011.107.019,1.807.323,3.693.358,5.242-1.191a.732.732,0,0,0-1.036-1.035,3.283,3.283,0,0,1-.521.425l-4.256-3.833a3.174,3.174,0,0,1,.581-.787.732.732,0,0,0-1.035-1.036c-1.624,1.624-1.507,3.617-1.141,5.508-1.887-.366-3.883-.485-5.508,1.141s-1.509,3.622-1.143,5.511c-1.889-.366-3.885-.483-5.508,1.14a.732.732,0,0,0,1.035,1.036,3.178,3.178,0,0,1,.788-.581l3.833,4.256a3.269,3.269,0,0,1-.425.52.732.732,0,0,0,1.036,1.036c1.549-1.549,1.513-3.438,1.189-5.249,0-.022-.007-.045-.012-.067C1468.771,783.011,1468.758,782.946,1468.745,782.882Zm6.317-8.215c-.1-.437-.181-.861-.243-1.27l1.9,1.562A16.006,16.006,0,0,1,1475.062,774.667Zm3.694.116a3.536,3.536,0,0,1-1.018.207l-3.005-2.47a4.22,4.22,0,0,1,.121-1.253Zm-11.282,9.422-1.561-1.9c.409.061.832.146,1.269.242A15.99,15.99,0,0,1,1467.474,784.2Zm-3.692-1.867a4.22,4.22,0,0,1,1.254-.12l2.468,3a3.532,3.532,0,0,1-.207,1.019Z" transform="translate(-1461.124 -768.609)"/><path class="d" d="M1498.217,804.127l-2.684-2.684-.572-.571a5.026,5.026,0,1,0-1.573,1.574l.571.572,2.684,2.684a1.113,1.113,0,0,0,1.574-1.573Zm-10.891-5.924a3.393,3.393,0,1,1,3.393,3.393A3.393,3.393,0,0,1,1487.326,798.2Z" transform="translate(-1477.368 -784.852)"/><path class="d" d="M1498.5,805.13a.852.852,0,1,0,.852.852A.852.852,0,0,0,1498.5,805.13Z" transform="translate(-1485.26 -792.745)"/><path class="d" d="M1500.559,799.494a.757.757,0,1,0,.757.757A.757.757,0,0,0,1500.559,799.494Z" transform="translate(-1486.686 -789.02)"/><path class="d" d="M1493.523,808.044a.757.757,0,1,0-.757.757A.757.757,0,0,0,1493.523,808.044Z" transform="translate(-1481.535 -794.171)"/></g></g></g><g transform="translate(98)"><rect class="b" width="90" height="56"/><text class="c" transform="translate(45 45)"><tspan x="-10.225" y="0">Loja</tspan></text><g transform="translate(-1317.383 -2679.939)"><g transform="translate(1356.685 2706.239)"><path class="e" d="M1357.906,2709.064a.323.323,0,0,0,0,.646.323.323,0,1,0,0-.646Z" transform="translate(-1357.583 -2709.064)"/></g><g transform="translate(1351.805 2690.877)"><path class="e" d="M1372.624,2690.877a3.169,3.169,0,0,0-3.062,2.367l-.177.666h-16.113a1.453,1.453,0,0,0-1.16.57,1.47,1.47,0,0,0-.261,1.274l1.682,6.445a1.471,1.471,0,0,0,1.417,1.093h11.993l-.333,1.275a1.991,1.991,0,0,0-.243-.019,2.023,2.023,0,0,0-1.987,1.692H1359a2.016,2.016,0,1,0,0,.646h5.385a2.012,2.012,0,1,0,2.843-2.138l.442-1.692h0l.033-.123,2.482-9.525a2.528,2.528,0,0,1,2.444-1.883.319.319,0,0,0,.318-.324A.325.325,0,0,0,1372.624,2690.877Zm-15.616,17.064a1.374,1.374,0,1,1,1.37-1.407.166.166,0,0,0-.005.029c0,.009.005.019.005.029A1.379,1.379,0,0,1,1357.008,2707.941Zm10.729-1.379a1.371,1.371,0,1,1-1.368-1.369A1.374,1.374,0,0,1,1367.737,2706.562Zm.133-6.826h-2.463l.348-2.271h2.7l-.518,1.987Zm-14.907-2.271h2.705l.351,2.271h-2.467Zm3.356,0h2.448l.123,2.271h-2.224Zm3.09,0h2.6l-.119,2.271h-2.368Zm3.246,0h2.449l-.348,2.271h-2.224Zm5.97-.638h-2.775l.346-2.272h3.022Zm-3.423,0h-2.518l.123-2.272h2.738Zm-3.037-2.272-.118,2.272h-2.672l-.118-2.272Zm-3.55,0,.119,2.272h-2.515l-.343-2.272Zm-6,.323a.815.815,0,0,1,.655-.323h1.953l.348,2.272H1352.8l-.323-1.236A.819.819,0,0,1,1352.617,2694.878Zm1.535,7.159-.428-1.654h2.392l.346,2.272h-1.512A.829.829,0,0,1,1354.152,2702.037Zm2.61-1.654h2.157l.123,2.272h-1.934Zm2.918,2.272-.119-2.272h2.3l-.114,2.272Zm2.7,0,.123-2.272h2.158l-.347,2.272Zm2.58,0,.348-2.272h2.4l-.595,2.272Z" transform="translate(-1351.805 -2690.877)"/></g><g transform="translate(1366.04 2706.239)"><path class="e" d="M1368.658,2709.387a.326.326,0,1,0,.328-.324A.324.324,0,0,0,1368.658,2709.387Z" transform="translate(-1368.658 -2709.064)"/></g></g></g><g transform="translate(188)"><rect class="b" width="90" height="56"/><text class="c" transform="translate(45 45)"><tspan x="-18.055" y="0">Laudos</tspan></text><g transform="translate(-1046.151 -1584.267)"><path class="e" d="M1096.4,1613.276h-12.952a.335.335,0,0,1-.335-.336v-15.806a.335.335,0,0,1,.121-.258l3.564-2.969a.334.334,0,0,1,.214-.078h9.388a.335.335,0,0,1,.335.335v18.776A.335.335,0,0,1,1096.4,1613.276Zm-12.616-.671h12.281V1594.5h-8.932l-3.349,2.792Z" transform="translate(0 0)"/><path class="e" d="M1099.975,1616.807h-12.951a.336.336,0,0,1-.336-.335v-1.409a.336.336,0,0,1,.336-.335h11.189v-17.033a.335.335,0,0,1,.335-.335h1.427a.335.335,0,0,1,.336.335v18.776A.335.335,0,0,1,1099.975,1616.807Zm-12.616-.67h12.281V1598.03h-.757v17.033a.335.335,0,0,1-.335.336h-11.189Z" transform="translate(-2.15 -2.122)"/><path class="e" d="M1087.01,1597.47h-3.564a.335.335,0,0,1-.214-.593l3.564-2.97a.335.335,0,0,1,.55.257v2.97A.335.335,0,0,1,1087.01,1597.47Zm-2.637-.671h2.3v-1.918Z" transform="translate(0 0)"/><path class="e" d="M1098.329,1627.429h-8.737a.335.335,0,0,1-.335-.335V1622.3a.335.335,0,1,1,.67,0v4.456h8.4a.335.335,0,0,1,0,.67Z" transform="translate(-3.694 -16.911)"/><path class="e" d="M1091.706,1627.95a.335.335,0,0,1-.272-.532l.8-1.111a.336.336,0,0,1,.272-.138h.546v-1.16a.336.336,0,0,1,.336-.335h1.126l.7-.7v-.8a.335.335,0,0,1,.335-.335h2.778a.335.335,0,1,1,0,.671h-2.443v.6a.334.334,0,0,1-.1.237l-.9.9a.337.337,0,0,1-.237.1h-.929v1.159a.335.335,0,0,1-.335.335h-.71l-.7.973A.334.334,0,0,1,1091.706,1627.95Z" transform="translate(-4.964 -17.432)"/><path class="e" d="M1101.454,1631.933a.335.335,0,0,1-.335-.335v-1.8a.335.335,0,0,1,.671,0v1.8A.335.335,0,0,1,1101.454,1631.933Z" transform="translate(-10.823 -21.416)"/><path class="e" d="M1108.9,1630.172a.335.335,0,0,1-.336-.335v-2.97a.335.335,0,1,1,.671,0v2.97A.335.335,0,0,1,1108.9,1630.172Z" transform="translate(-15.297 -19.654)"/><path class="e" d="M1091.795,1615.939a.962.962,0,0,1-.679-.286c-.17-.161-.3-.134-.707.06a1.179,1.179,0,0,1-1.453-.06.335.335,0,0,1,.46-.488c.171.161.3.134.707-.059a1.182,1.182,0,0,1,1.453.059c.171.161.3.134.707-.059a1.181,1.181,0,0,1,1.453.059c.171.161.3.134.708-.059a1.181,1.181,0,0,1,1.453.059c.171.161.3.134.707-.059a1.182,1.182,0,0,1,1.453.059.335.335,0,0,1-.46.488c-.17-.161-.3-.134-.707.059a1.18,1.18,0,0,1-1.453-.06c-.17-.161-.3-.134-.707.06a1.18,1.18,0,0,1-1.453-.06c-.17-.161-.3-.134-.707.06A1.856,1.856,0,0,1,1091.795,1615.939Z" transform="translate(-3.449 -12.651)"/><path class="e" d="M1091.794,1612.192a.963.963,0,0,1-.679-.286c-.17-.162-.3-.135-.707.059a1.18,1.18,0,0,1-1.453-.059.335.335,0,1,1,.46-.488c.171.161.3.134.707-.06a1.18,1.18,0,0,1,1.453.06c.17.161.3.134.707-.06a1.18,1.18,0,0,1,1.453.06c.17.161.3.134.708-.06a1.179,1.179,0,0,1,1.452.06c.171.161.3.134.708-.06a1.18,1.18,0,0,1,1.453.06.335.335,0,1,1-.46.488c-.171-.161-.3-.135-.707.059a1.181,1.181,0,0,1-1.453-.059c-.171-.162-.3-.135-.707.059a1.181,1.181,0,0,1-1.453-.059c-.172-.162-.3-.134-.707.059A1.85,1.85,0,0,1,1091.794,1612.192Z" transform="translate(-3.449 -10.399)"/><path class="e" d="M1091.795,1608.445a.961.961,0,0,1-.679-.287c-.17-.161-.3-.134-.707.06a1.179,1.179,0,0,1-1.453-.06.335.335,0,0,1,.46-.487c.171.161.3.134.707-.059a1.182,1.182,0,0,1,1.453.059c.171.162.3.134.707-.059a1.181,1.181,0,0,1,1.453.059c.171.162.3.135.708-.059a1.181,1.181,0,0,1,1.453.059c.171.162.3.135.707-.059a1.182,1.182,0,0,1,1.453.059.335.335,0,1,1-.46.488c-.17-.161-.3-.134-.707.059a1.18,1.18,0,0,1-1.453-.06c-.17-.161-.3-.134-.707.06a1.18,1.18,0,0,1-1.453-.06c-.17-.161-.3-.134-.707.06A1.852,1.852,0,0,1,1091.795,1608.445Z" transform="translate(-3.449 -8.147)"/><path class="e" d="M1101.13,1600.775h-6.447a.335.335,0,1,1,0-.671h6.112v-1.667h-5.575a.335.335,0,0,1,0-.671h5.911a.336.336,0,0,1,.336.336v2.337A.335.335,0,0,1,1101.13,1600.775Z" transform="translate(-6.754 -2.366)"/></g></g><g transform="translate(278)"><rect class="b" width="90" height="56"/><text class="c" transform="translate(45 45)"><tspan x="-13.19" y="0">Perfil</tspan></text><g transform="translate(-98.563 -699.5)"><g transform="translate(135 709)"><path class="e" d="M1232.042,1695.263H1231a6.007,6.007,0,0,1-5.533,0h-1.042a4.644,4.644,0,0,0-4.639,4.638v6.013h16.895V1699.9A4.644,4.644,0,0,0,1232.042,1695.263Z" transform="translate(-1219.785 -1685.034)"/><path class="e" d="M1252.052,1635.649a4.876,4.876,0,1,0-4.876,4.876A4.882,4.882,0,0,0,1252.052,1635.649Z" transform="translate(-1238.729 -1630.773)"/></g></g></g></g></svg>