<svg xmlns="http://www.w3.org/2000/svg" xmlns:xlink="http://www.w3.org/1999/xlink" width="121.848" height="27.828" viewBox="0 0 121.848 27.828"><defs><style>.a{opacity:0.4;}.b{fill:#5b3d8b;}.c{fill:url(#a);}.d{fill:#d1a4a4;}.e{fill:url(#b);}.f{fill:#9b88b8;}.g{fill:url(#c);}.h{fill:url(#d);}.i{fill:url(#e);}.j{fill:url(#f);}.k{fill:url(#g);}.l{fill:url(#h);}.m{fill:url(#i);}.n{fill:#782007;}.o{fill:url(#j);}.p{fill:#4c1183;}.q{fill:url(#k);}.r{fill:url(#l);}.s{fill:url(#m);}.t{fill:url(#n);}.u{fill:url(#o);}.v{fill:url(#p);}.w{fill:url(#q);}.x{fill:url(#r);}.y{fill:url(#s);}.z{fill:url(#t);}.aa{fill:url(#u);}.ab{fill:url(#v);}</style><linearGradient id="a" x1="-27.914" y1="16.324" x2="-31.683" y2="18.079" gradientUnits="objectBoundingBox"><stop offset="0" stop-color="#053cc7"/><stop offset="0.5" stop-color="#0dd6fb"/><stop offset="1" stop-color="#053cc7"/></linearGradient><linearGradient id="b" x1="-34.694" y1="13.167" x2="-38.462" y2="14.922" xlink:href="#a"/><linearGradient id="c" x1="-35.536" y1="15.722" x2="-30.93" y2="15.722" gradientUnits="objectBoundingBox"><stop offset="0" stop-color="#220ae9"/><stop offset="0.5" stop-color="#e10bbd"/><stop offset="1" stop-color="#220ae9"/></linearGradient><linearGradient id="d" x1="-409.46" y1="165.409" x2="-356.383" y2="165.409" gradientUnits="objectBoundingBox"><stop offset="0" stop-color="#0cfbfb"/><stop offset="1" stop-color="#0b97ec"/></linearGradient><linearGradient id="e" x1="-608.296" y1="223.984" x2="-529.638" y2="223.984" xlink:href="#d"/><linearGradient id="f" x1="-411.398" y1="270.367" x2="-406.304" y2="270.367" xlink:href="#d"/><linearGradient id="g" x1="-511.713" y1="223.517" x2="-506.619" y2="223.517" xlink:href="#d"/><linearGradient id="h" x1="-419.992" y1="160.851" x2="-366.915" y2="160.851" xlink:href="#c"/><linearGradient id="i" x1="-397.224" y1="160.851" x2="-393.259" y2="160.851" xlink:href="#d"/><linearGradient id="j" x1="-581.805" y1="218.75" x2="-579.298" y2="218.75" xlink:href="#d"/><linearGradient id="k" x1="-498.074" y1="127.066" x2="-444.993" y2="127.066" xlink:href="#c"/><linearGradient id="l" x1="-737.099" y1="172.622" x2="-658.44" y2="172.622" xlink:href="#c"/><linearGradient id="m" x1="-319.178" y1="194.635" x2="-315.214" y2="194.635" xlink:href="#d"/><linearGradient id="n" x1="-341.947" y1="194.635" x2="-288.868" y2="194.635" xlink:href="#c"/><linearGradient id="o" x1="-465.543" y1="264.878" x2="-463.039" y2="264.878" xlink:href="#d"/><linearGradient id="p" x1="-505.111" y1="264.878" x2="-426.551" y2="264.878" xlink:href="#c"/><linearGradient id="q" x1="-487.101" y1="131.625" x2="-434.068" y2="131.625" xlink:href="#d"/><linearGradient id="r" x1="-723.973" y1="177.856" x2="-645.314" y2="177.856" xlink:href="#d"/><linearGradient id="s" x1="-42.311" y1="12.564" x2="-37.704" y2="12.564" xlink:href="#c"/><linearGradient id="t" x1="-331.414" y1="199.194" x2="-278.335" y2="199.194" xlink:href="#d"/><linearGradient id="u" x1="-492.62" y1="270.112" x2="-413.961" y2="270.112" xlink:href="#d"/><linearGradient id="v" x1="-28.762" y1="18.879" x2="-24.156" y2="18.879" xlink:href="#c"/></defs><g class="a" transform="translate(-127 -409.333)"><path class="b" d="M538.857,683.895c-2.795,5.37-5.849,7.354-7.908,7.354-2.043,0-5.066-1.945-7.844-7.223a32.243,32.243,0,0,1-3.507,6.148c3.728,5.02,7.7,6.369,10.4,6.607a45.567,45.567,0,0,0,8.86-12.882Z" transform="translate(-355.448 -259.663)"/><path class="b" d="M482.236,663.38c2.642-4.623,5.44-6.362,7.367-6.362,2.3,0,5.828,2.45,8.859,9.327.019.043.039.084.058.127.343-.651.682-1.35,1.014-2.1a35.03,35.03,0,0,1,2.493-4.713c-3.563-5.589-7.488-7.482-10.4-8.022A42.007,42.007,0,0,0,482.236,663.38Z" transform="translate(-337.877 -242.109)"/><path class="b" d="M572,663.38c2.642-4.623,5.44-6.362,7.367-6.362,2.3,0,5.828,2.45,8.859,9.327.019.043.039.084.058.127.343-.651.682-1.35,1.014-2.1a34.975,34.975,0,0,1,2.492-4.713c-3.563-5.589-7.488-7.482-10.4-8.022A42.008,42.008,0,0,0,572,663.38Z" transform="translate(-380.093 -242.109)"/><path class="b" d="M619.762,696.781a45.572,45.572,0,0,0,8.86-12.882v0c-2.8,5.37-5.849,7.354-7.908,7.354-2.043,0-5.067-1.945-7.844-7.223a32.239,32.239,0,0,1-3.507,6.148C613.09,695.194,617.057,696.543,619.762,696.781Z" transform="translate(-397.663 -259.663)"/><path class="c" d="M518.977,673.943a34.982,34.982,0,0,0-2.492-4.713,35.03,35.03,0,0,0-2.493,4.713c-.333.755-.672,1.453-1.014,2.1a32.268,32.268,0,0,0,3.507,6.148,32.242,32.242,0,0,0,3.507-6.148C519.648,675.4,519.309,674.7,518.977,673.943Z" transform="translate(-352.334 -251.684)"/><path class="d" d="M647.2,678.266c-.157-.3-.315-.589-.474-.867q.257.466.471.874Z" transform="translate(-415.234 -256.128)"/><path class="d" d="M557.43,678.272l0-.006c-.158-.3-.316-.589-.475-.867Q557.217,677.865,557.43,678.272Z" transform="translate(-373.019 -256.128)"/><path class="e" d="M608.742,673.943a35.037,35.037,0,0,0-2.493-4.713,34.975,34.975,0,0,0-2.492,4.713c-.333.755-.672,1.453-1.014,2.1a32.239,32.239,0,0,0,3.507,6.148,32.242,32.242,0,0,0,3.507-6.148C609.413,675.4,609.074,674.7,608.742,673.943Z" transform="translate(-394.55 -251.684)"/><path class="f" d="M568.464,663.152a42.007,42.007,0,0,1,9.391-11.747,11.127,11.127,0,0,0-2.024-.191c-2.661,0-7.157,1.008-11.351,6.655a32.217,32.217,0,0,1,3.51,6.15C568.147,663.72,568.3,663.43,568.464,663.152Z" transform="translate(-376.556 -241.882)"/><path class="f" d="M549.7,680.52c-.158-.326-.361-.733-.609-1.2l-.052.115c-.312.707-.63,1.357-.95,1.972v.005a45.566,45.566,0,0,1-8.86,12.882c.337.03.656.043.951.043,2.89,0,7.944-1.185,12.424-8.213a35.013,35.013,0,0,1-2.492-4.712C549.977,681.1,549.84,680.81,549.7,680.52Z" transform="translate(-364.681 -257.171)"/><path class="g" d="M564.268,673.173c.2-.423.4-.825.607-1.211a32.214,32.214,0,0,0-3.51-6.15,32.191,32.191,0,0,0-3.509,6.15c.2.386.406.788.606,1.211.272.563.411.887.411.887a34.99,34.99,0,0,0,2.492,4.712,34.983,34.983,0,0,0,2.492-4.712S564,673.735,564.268,673.173Z" transform="translate(-373.44 -249.824)"/><path class="f" d="M564.268,673.173c.2-.423.4-.825.607-1.211a32.214,32.214,0,0,0-3.51-6.15,32.191,32.191,0,0,0-3.509,6.15c.2.386.406.788.606,1.211.272.563.411.887.411.887a34.99,34.99,0,0,0,2.492,4.712,34.983,34.983,0,0,0,2.492-4.712S564,673.735,564.268,673.173Z" transform="translate(-373.44 -249.824)"/><path class="d" d="M558.458,680.512c-.2-.423-.4-.825-.606-1.211l0,.006C558.1,679.779,558.3,680.186,558.458,680.512Z" transform="translate(-373.438 -257.163)"/><path class="h" d="M558.458,680.512c-.2-.423-.4-.825-.606-1.211l0,.006C558.1,679.779,558.3,680.186,558.458,680.512Z" transform="translate(-373.438 -257.163)"/><path class="d" d="M559,681.958c.138.29.275.579.411.887C559.41,682.845,559.271,682.521,559,681.958Z" transform="translate(-373.978 -258.609)"/><path class="i" d="M559,681.958c.138.29.275.579.411.887C559.41,682.845,559.271,682.521,559,681.958Z" transform="translate(-373.978 -258.609)"/><path class="j" d="M481.341,678.266l0,.006q.214-.406.471-.874C481.656,677.677,481.5,677.967,481.341,678.266Z" transform="translate(-337.457 -256.128)"/><path class="k" d="M571.106,678.266l0,.006q.215-.406.471-.874C571.421,677.677,571.263,677.967,571.106,678.266Z" transform="translate(-379.672 -256.128)"/><path class="l" d="M569.961,680.512c.158-.326.361-.733.609-1.2l0-.006C570.364,679.687,570.162,680.089,569.961,680.512Z" transform="translate(-379.134 -257.163)"/><path class="m" d="M569.961,680.512c.158-.326.361-.733.609-1.2l0-.006C570.364,679.687,570.162,680.089,569.961,680.512Z" transform="translate(-379.134 -257.163)"/><path class="n" d="M569.6,681.958c-.272.563-.411.887-.411.887C569.321,682.537,569.458,682.248,569.6,681.958Z" transform="translate(-378.769 -258.609)"/><path class="o" d="M569.6,681.958c-.272.563-.411.887-.411.887C569.321,682.537,569.458,682.248,569.6,681.958Z" transform="translate(-378.769 -258.609)"/><path class="p" d="M577.855,679c2.7-.237,6.672-1.587,10.4-6.607a32.242,32.242,0,0,0,3.507-6.148c.019-.043.039-.084.058-.127,1.805-4.1,3.789-6.621,5.582-7.994v8.121a.489.489,0,0,0,.966,0v-8.762a4.793,4.793,0,0,1,2.311-.692,5.973,5.973,0,0,1,3.713,1.695v7.76a.489.489,0,0,0,.966,0v-6.83a19.887,19.887,0,0,1,2.688,3.737c.159.278.317.568.474.867a32.238,32.238,0,0,1,3.51-6.15c-4.194-5.647-8.69-6.654-11.351-6.654a11.128,11.128,0,0,0-2.024.191c-2.912.54-6.837,2.434-10.4,8.022a34.994,34.994,0,0,0-2.492,4.712c-.333.755-.672,1.454-1.014,2.1a18.931,18.931,0,0,1-4.019,5.435v-6.2a.488.488,0,0,0-.966,0v6.954a5.22,5.22,0,0,1-2.858,1.034,5.476,5.476,0,0,1-3.165-1.254V665.48a.488.488,0,0,0-.966,0V671.4A19.88,19.88,0,0,1,569,666.114v0c-.32-.616-.638-1.265-.95-1.973-.017-.039-.035-.075-.052-.115-.248.472-.451.879-.609,1.2-.138.29-.275.58-.411.887a34.984,34.984,0,0,1-2.492,4.712c4.48,7.028,9.534,8.213,12.424,8.213C577.2,679.043,577.518,679.029,577.855,679Z" transform="translate(-376.556 -241.882)"/><path class="p" d="M656.737,681.407a34.966,34.966,0,0,1-2.492,4.712c4.48,7.028,9.534,8.213,12.424,8.213.3,0,.614-.014.951-.043a45.56,45.56,0,0,1-8.86-12.882V681.4c-.32-.615-.639-1.265-.95-1.972l-.052-.115c-.248.472-.452.879-.609,1.2C657.011,680.81,656.873,681.1,656.737,681.407Z" transform="translate(-418.771 -257.171)"/><path class="q" d="M659.726,680.512c.157-.326.361-.733.609-1.2l0-.006C660.129,679.687,659.926,680.089,659.726,680.512Z" transform="translate(-421.349 -257.163)"/><path class="n" d="M658.95,682.845c.136-.308.273-.6.411-.887C659.089,682.521,658.95,682.845,658.95,682.845Z" transform="translate(-420.984 -258.609)"/><path class="r" d="M658.95,682.845c.136-.308.273-.6.411-.887C659.089,682.521,658.95,682.845,658.95,682.845Z" transform="translate(-420.984 -258.609)"/><path class="p" d="M462.841,657.87c-4.193-5.647-8.69-6.655-11.351-6.655a11.125,11.125,0,0,0-2.024.191,42.014,42.014,0,0,1,9.391,11.747c.159.278.317.568.475.867A32.211,32.211,0,0,1,462.841,657.87Z" transform="translate(-322.466 -241.882)"/><path class="p" d="M488.09,679c2.7-.237,6.672-1.587,10.4-6.607A32.239,32.239,0,0,0,502,666.245c.019-.043.039-.084.058-.127a21.867,21.867,0,0,1,4.9-7.422v7.549a.489.489,0,0,0,.966,0v-8.33a4.546,4.546,0,0,1,6.023.033v8.3a.489.489,0,0,0,.966,0v-7.506a18.263,18.263,0,0,1,3.37,4.414c.159.278.317.568.475.867a32.205,32.205,0,0,1,3.509-6.15c-4.194-5.647-8.69-6.654-11.351-6.654a11.128,11.128,0,0,0-2.024.191c-2.912.54-6.836,2.434-10.4,8.022A35.056,35.056,0,0,0,496,664.14c-.333.755-.672,1.454-1.014,2.1a19.168,19.168,0,0,1-3.919,5.347V665.48a.488.488,0,0,0-.966,0v6.884a5.3,5.3,0,0,1-2.958,1.1,5.4,5.4,0,0,1-3.065-1.182V665.48a.488.488,0,0,0-.966,0v6.009a19.633,19.633,0,0,1-3.877-5.375c-.32-.616-.639-1.266-.95-1.974-.018-.039-.036-.075-.052-.115-.248.472-.452.879-.609,1.2-.138.29-.275.58-.412.887a35,35,0,0,1-2.492,4.712c4.48,7.028,9.534,8.213,12.424,8.213C487.434,679.043,487.753,679.029,488.09,679Z" transform="translate(-334.34 -241.882)"/><path class="s" d="M480.2,680.512c.157-.326.361-.733.609-1.2l0-.006C480.6,679.687,480.4,680.089,480.2,680.512Z" transform="translate(-336.918 -257.163)"/><path class="t" d="M480.2,680.512c.157-.326.361-.733.609-1.2l0-.006C480.6,679.687,480.4,680.089,480.2,680.512Z" transform="translate(-336.918 -257.163)"/><path class="u" d="M479.832,681.958c-.272.563-.411.887-.411.887C479.556,682.537,479.694,682.248,479.832,681.958Z" transform="translate(-336.553 -258.609)"/><path class="v" d="M479.832,681.958c-.272.563-.411.887-.411.887C479.556,682.537,479.694,682.248,479.832,681.958Z" transform="translate(-336.553 -258.609)"/><path class="f" d="M639.467,680.52c-.158-.326-.362-.733-.61-1.2-.017.039-.035.076-.052.115-.312.708-.63,1.357-.951,1.973v0a45.568,45.568,0,0,1-8.86,12.882c.337.03.656.043.951.043,2.89,0,7.944-1.185,12.424-8.213a34.98,34.98,0,0,1-2.492-4.712C639.742,681.1,639.6,680.81,639.467,680.52Z" transform="translate(-406.896 -257.171)"/><path class="f" d="M658.229,663.152a42.015,42.015,0,0,1,9.391-11.747,11.125,11.125,0,0,0-2.024-.191c-2.661,0-7.157,1.008-11.351,6.655a32.185,32.185,0,0,1,3.509,6.15C657.912,663.72,658.07,663.43,658.229,663.152Z" transform="translate(-418.771 -241.882)"/><path class="d" d="M648.223,680.512c-.2-.423-.4-.825-.607-1.211l0,.006C647.861,679.779,648.065,680.186,648.223,680.512Z" transform="translate(-415.652 -257.163)"/><path class="w" d="M648.223,680.512c-.2-.423-.4-.825-.607-1.211l0,.006C647.861,679.779,648.065,680.186,648.223,680.512Z" transform="translate(-415.652 -257.163)"/><path class="d" d="M648.764,681.958c.137.29.275.579.411.887C649.175,682.845,649.036,682.521,648.764,681.958Z" transform="translate(-416.194 -258.609)"/><path class="x" d="M648.764,681.958c.137.29.275.579.411.887C649.175,682.845,649.036,682.521,648.764,681.958Z" transform="translate(-416.194 -258.609)"/><path class="y" d="M648.226,673.173c.272.563.411.887.411.887a34.964,34.964,0,0,0,2.492,4.712,34.957,34.957,0,0,0,2.492-4.712s.139-.325.411-.887c.2-.423.4-.825.606-1.211a32.182,32.182,0,0,0-3.509-6.15,32.214,32.214,0,0,0-3.51,6.15C647.822,672.348,648.025,672.75,648.226,673.173Z" transform="translate(-415.655 -249.824)"/><path class="f" d="M648.226,673.173c.272.563.411.887.411.887a34.964,34.964,0,0,0,2.492,4.712,34.957,34.957,0,0,0,2.492-4.712s.139-.325.411-.887c.2-.423.4-.825.606-1.211a32.182,32.182,0,0,0-3.509-6.15,32.214,32.214,0,0,0-3.51,6.15C647.822,672.348,648.025,672.75,648.226,673.173Z" transform="translate(-415.655 -249.824)"/><path class="f" d="M459.937,680.52c-.157-.326-.361-.733-.609-1.2-.018.039-.035.075-.052.115-.311.707-.63,1.357-.95,1.972v.005a45.559,45.559,0,0,1-8.86,12.882c.337.03.656.043.951.043,2.89,0,7.944-1.185,12.424-8.213a35.035,35.035,0,0,1-2.492-4.712C460.213,681.1,460.075,680.81,459.937,680.52Z" transform="translate(-322.466 -257.171)"/><path class="f" d="M478.7,663.152a42.009,42.009,0,0,1,9.391-11.747,11.123,11.123,0,0,0-2.024-.191c-2.661,0-7.157,1.008-11.351,6.655a32.217,32.217,0,0,1,3.51,6.15C478.382,663.72,478.54,663.43,478.7,663.152Z" transform="translate(-334.34 -241.882)"/><path class="z" d="M468.087,679.3l0,.006c.248.472.452.879.609,1.2C468.493,680.089,468.291,679.687,468.087,679.3Z" transform="translate(-331.222 -257.163)"/><path class="n" d="M469.234,681.958c.138.29.275.579.411.887C469.645,682.845,469.506,682.521,469.234,681.958Z" transform="translate(-331.763 -258.609)"/><path class="aa" d="M469.234,681.958c.138.29.275.579.411.887C469.645,682.845,469.506,682.521,469.234,681.958Z" transform="translate(-331.763 -258.609)"/><path class="ab" d="M474.5,673.173c.2-.423.4-.825.606-1.211a32.214,32.214,0,0,0-3.51-6.15,32.214,32.214,0,0,0-3.509,6.15c.2.386.406.788.606,1.211.272.563.411.887.411.887a35.023,35.023,0,0,0,2.492,4.712,34.964,34.964,0,0,0,2.492-4.712S474.231,673.735,474.5,673.173Z" transform="translate(-331.225 -249.824)"/><path class="f" d="M474.5,673.173c.2-.423.4-.825.606-1.211a32.214,32.214,0,0,0-3.51-6.15,32.214,32.214,0,0,0-3.509,6.15c.2.386.406.788.606,1.211.272.563.411.887.411.887a35.023,35.023,0,0,0,2.492,4.712,34.964,34.964,0,0,0,2.492-4.712S474.231,673.735,474.5,673.173Z" transform="translate(-331.225 -249.824)"/></g></svg>