<svg xmlns="http://www.w3.org/2000/svg" width="40.485" height="33.493" viewBox="0 0 40.485 33.493"><g transform="translate(0 0)"><path d="M39.914,47.287a3.2,3.2,0,0,0-2.625-1.373h-19.8a1.339,1.339,0,0,0,0,2.678h19.8a.518.518,0,0,1,.485.7l-3.71,9.986a.521.521,0,0,1-.485.338h-20.8L9.462,45.473A3.851,3.851,0,0,0,5.7,42.491H2.009a2.009,2.009,0,0,0,0,4.017H5.578L10.04,65.547A3.846,3.846,0,0,0,13.7,68.521a4.129,4.129,0,1,0,4.846.009h7.7a4.129,4.129,0,1,0,4.856,0h1.872a2.009,2.009,0,1,0,0-4.017H13.924l-.52-2.221H33.579a3.209,3.209,0,0,0,2.995-2.083l3.711-9.988A3.2,3.2,0,0,0,39.914,47.287Z" transform="translate(0 -42.491)"/></g></svg>