<svg xmlns="http://www.w3.org/2000/svg" width="28.824" height="32.667" viewBox="0 0 28.824 32.667"><g transform="translate(0)"><path d="M54.788,0h-14.2a3.091,3.091,0,0,0-2.189.91L29.952,9.393a3.088,3.088,0,0,0-.9,2.179V29.578a3.089,3.089,0,0,0,3.089,3.089H54.788a3.088,3.088,0,0,0,3.088-3.089V3.089A3.088,3.088,0,0,0,54.788,0Zm.91,29.578a.911.911,0,0,1-.91.911H32.141a.912.912,0,0,1-.911-.911V12.186h8.686a1.452,1.452,0,0,0,1.45-1.451V2.178H54.788a.911.911,0,0,1,.91.911v26.49Z" transform="translate(-29.052)"/><path d="M143.8,254.455H131.584a1.633,1.633,0,1,0,0,3.267H143.8a1.633,1.633,0,0,0,0-3.267Z" transform="translate(-123.277 -237.625)"/><path d="M251.418,172.139h-4.589a1.633,1.633,0,0,0,0,3.267h4.589a1.633,1.633,0,1,0,0-3.267Z" transform="translate(-230.899 -160.754)"/><path d="M251.418,89.825h-4.589a1.633,1.633,0,0,0,0,3.267h4.589a1.633,1.633,0,1,0,0-3.267Z" transform="translate(-230.899 -83.884)"/><path d="M143.8,347.421H131.584a1.633,1.633,0,1,0,0,3.267H143.8a1.633,1.633,0,1,0,0-3.267Z" transform="translate(-123.277 -324.442)"/></g></svg>