<svg xmlns="http://www.w3.org/2000/svg" width="30.834" height="33.333" viewBox="0 0 30.834 33.333"><g transform="translate(0 0)"><path d="M125.3,283.838a6.011,6.011,0,0,1-10.143,0,5.443,5.443,0,0,0-2.459,2.66l-.94,2.142a10.273,10.273,0,0,0,16.942,0l-.941-2.144A5.439,5.439,0,0,0,125.3,283.838Z" transform="translate(-104.814 -264.767)"/><path d="M169.248,119.706c2.879,0,5.222-2.92,5.222-6.509s-2.343-6.511-5.222-6.511-5.223,2.921-5.223,6.511S166.369,119.706,169.248,119.706Zm0-10.8c1.747,0,3.167,1.923,3.167,4.288s-1.42,4.287-3.167,4.287-3.168-1.924-3.168-4.287S167.5,108.908,169.248,108.908Z" transform="translate(-153.831 -99.518)"/><path d="M15.417,0C6.916,0,0,7.482,0,16.671S6.916,33.338,15.417,33.338s15.417-7.476,15.417-16.667S23.918,0,15.417,0Zm0,30c-6.8,0-12.334-5.981-12.334-13.333S8.616,3.338,15.417,3.338,27.75,9.32,27.75,16.671,22.218,30,15.417,30Z" transform="translate(0 -0.005)"/></g></svg>