<svg xmlns="http://www.w3.org/2000/svg" xmlns:xlink="http://www.w3.org/1999/xlink" width="176" height="81.857" viewBox="0 0 176 81.857"><defs><style>.a{fill:url(#a);}.b{fill:#8a46c6;}.c{fill:#9fabff;}.d{fill:url(#d);}.e{fill:#fff;}.f{fill:url(#e);}.g{fill:url(#f);}.h{fill:url(#g);}.i{fill:url(#h);}.j{fill:url(#i);}.k{fill:url(#k);}.l{fill:url(#l);}.m{fill:url(#m);}.n{fill:#bdcfde;}.o{fill:url(#n);}.p{fill:url(#o);}.q{fill:url(#v);}.r{fill:url(#x);}.s{fill:url(#z);}.t{fill:url(#ab);}.u{fill:url(#af);}.v{fill:#bac8e5;}.w{filter:url(#b);}</style><linearGradient id="a" y1="0.562" x2="1" y2="0.598" gradientUnits="objectBoundingBox"><stop offset="0" stop-color="#3a0b57"/><stop offset="1" stop-color="#5b3d8b"/></linearGradient><filter id="b" x="0" y="0" width="176" height="81.857" filterUnits="userSpaceOnUse"><feOffset dy="3" input="SourceAlpha"/><feGaussianBlur stdDeviation="3" result="c"/><feFlood flood-opacity="0.161"/><feComposite operator="in" in2="c"/><feComposite in="SourceGraphic"/></filter><linearGradient id="d" x1="0.16" y1="-0.316" x2="0.879" y2="1.408" gradientUnits="objectBoundingBox"><stop offset="0" stop-color="#ff795d"/><stop offset="1" stop-color="#f74270"/></linearGradient><linearGradient id="e" x1="-0.052" y1="0.238" x2="1.108" y2="0.932" gradientUnits="objectBoundingBox"><stop offset="0" stop-color="#adf8ff"/><stop offset="1" stop-color="#6dc6ff"/></linearGradient><linearGradient id="f" x1="-0.348" y1="-0.815" x2="1.035" y2="1.497" gradientUnits="objectBoundingBox"><stop offset="0" stop-color="#7c79ff"/><stop offset="1" stop-color="#7c39ff"/></linearGradient><linearGradient id="g" x1="-0.249" y1="-0.173" x2="0.754" y2="0.927" xlink:href="#e"/><linearGradient id="h" y1="0.5" x2="1" y2="0.5" gradientUnits="objectBoundingBox"><stop offset="0.007" stop-color="#2d3952"/><stop offset="1" stop-color="#111e32"/></linearGradient><linearGradient id="i" x1="-0.177" y1="0.5" x2="1.553" y2="0.5" gradientUnits="objectBoundingBox"><stop offset="0" stop-color="#f1f4fa"/><stop offset="1" stop-color="#d4e3f0"/></linearGradient><linearGradient id="k" x1="0" y1="0.5" x2="1" y2="0.5" xlink:href="#i"/><linearGradient id="l" x1="0.035" y1="0.5" x2="0.923" y2="0.5" xlink:href="#h"/><linearGradient id="m" x1="-0.874" y1="-3.14" x2="1.614" y2="3.405" xlink:href="#i"/><linearGradient id="n" x1="0.035" y1="0.5" x2="0.923" y2="0.5" xlink:href="#i"/><linearGradient id="o" x1="-0.177" y1="0.5" x2="1.553" y2="0.5" xlink:href="#h"/><linearGradient id="v" x1="-19.34" y1="-28.864" x2="3.778" y2="5.352" xlink:href="#d"/><linearGradient id="x" x1="-3.352" y1="-5.2" x2="6.267" y2="9.035" xlink:href="#d"/><linearGradient id="z" x1="0" y1="0.5" x2="1" y2="0.5" xlink:href="#e"/><linearGradient id="ab" x1="0.017" y1="0.5" x2="0.896" y2="0.5" xlink:href="#h"/><linearGradient id="af" x1="0.327" y1="0.188" x2="0.924" y2="1.264" xlink:href="#i"/></defs><g transform="translate(-247 -385.319)"><g class="w" transform="matrix(1, 0, 0, 1, 247, 385.32)"><rect class="a" width="158" height="63.857" rx="31.929" transform="translate(167 69.86) rotate(180)"/></g><g transform="translate(-1545.821 -1023.896)"><circle class="b" cx="26.995" cy="26.995" r="26.995" transform="translate(1827.402 1420.26)"/><circle class="c" cx="1.143" cy="1.143" r="1.143" transform="translate(1824.779 1455.865) rotate(-58.283)"/><circle class="c" cx="1.031" cy="1.031" r="1.031" transform="matrix(0.232, -0.973, 0.973, 0.232, 1842.363, 1441.265)"/><path class="c" d="M1880.35,1537.65a.771.771,0,1,1-.771-.771A.771.771,0,0,1,1880.35,1537.65Z" transform="translate(-39.985 -86.944)"/><circle class="c" cx="1.022" cy="1.022" r="1.022" transform="translate(1863.556 1427.695)"/><circle class="c" cx="1.119" cy="1.119" r="1.119" transform="matrix(0.23, -0.973, 0.973, 0.23, 1874.093, 1456.104)"/><circle class="c" cx="0.943" cy="0.943" r="0.943" transform="translate(1846.98 1457.477) rotate(-82.407)"/><path class="d" d="M4.825,0H18.93a0,0,0,0,1,0,0V4.777A4.825,4.825,0,0,1,14.105,9.6H0a0,0,0,0,1,0,0V4.825A4.825,4.825,0,0,1,4.825,0Z" transform="translate(1829.402 1428.718)"/><g transform="translate(1836.801 1431.451)"><rect class="e" width="7.236" height="0.732" transform="translate(0 0)"/><rect class="e" width="9.392" height="0.732" transform="translate(0 1.657)"/><g transform="translate(0 3.314)"><rect class="e" width="4.553" height="0.732"/></g></g><g transform="translate(1826.251 1441.611)"><path class="f" d="M1851.194,1528.171l-5.791-11.8a11.871,11.871,0,0,1-1.215-5.231v-4.548h.043a.868.868,0,0,0,.868-.868h0a.868.868,0,0,0-.868-.868h-6.484a.868.868,0,0,0-.867.868h0a.868.868,0,0,0,.867.868h.043v4.548a11.871,11.871,0,0,1-1.215,5.231l-5.791,11.8a3.33,3.33,0,0,0,2.989,4.8h14.43A3.33,3.33,0,0,0,1851.194,1528.171Z" transform="translate(-1830.441 -1504.859)"/><path class="g" d="M1840.447,1573.995l-3.006,6.125a1.553,1.553,0,0,0,1.394,2.237h14.43a1.553,1.553,0,0,0,1.394-2.237l-3.006-6.125Z" transform="translate(-1835.5 -1556.024)"/><path class="h" d="M1850.406,1535.8a4.711,4.711,0,0,0,.654-9.377v.678a11.87,11.87,0,0,1-1.215,5.23l-1.475,3.007A4.694,4.694,0,0,0,1850.406,1535.8Z" transform="translate(-1843.709 -1520.818)"/><circle class="i" cx="4.529" cy="4.529" r="4.529" transform="translate(1.777 4.825)"/><g transform="translate(3.933 8.031)"><rect class="e" width="3.656" height="0.81"/><rect class="e" width="4.744" height="0.81" transform="translate(0 1.834)"/></g><rect class="e" width="2.579" height="0.507" transform="translate(11.974 24.481)"/><rect class="e" width="1.289" height="0.507" transform="translate(13.263 22.8)"/><rect class="e" width="2.579" height="0.507" transform="translate(11.974 21.119)"/><rect class="e" width="1.289" height="0.507" transform="translate(13.263 19.438)"/><rect class="e" width="2.579" height="0.507" transform="translate(11.974 17.758)"/><rect class="e" width="1.289" height="0.507" transform="translate(13.263 16.077)"/><rect class="e" width="2.579" height="0.507" transform="translate(11.974 14.396)"/></g><g transform="translate(1843.518 1419.396)"><path class="j" d="M1953.863,1479.93a17.038,17.038,0,0,0-10.241-15.626h-7.633v10.443h8.672a2.487,2.487,0,0,1,2.487,2.487v6.145a2.487,2.487,0,0,1-2.487,2.487h-9.372v1.053a1.87,1.87,0,0,0,1.249,1.764l7,2.466,1.475,2.082a7.7,7.7,0,0,0,4.109-1.506A16.979,16.979,0,0,0,1953.863,1479.93Z" transform="translate(-1925.302 -1452.631)"/><path class="j" d="M1953.863,1479.93a17.038,17.038,0,0,0-10.241-15.626h-7.633v10.443h8.672a2.487,2.487,0,0,1,2.487,2.487v6.145a2.487,2.487,0,0,1-2.487,2.487h-9.372v1.053a1.87,1.87,0,0,0,1.249,1.764l7,2.466.877,3.124a12.767,12.767,0,0,0,4.707-2.549A16.979,16.979,0,0,0,1953.863,1479.93Z" transform="translate(-1925.302 -1452.631)"/><path class="e" d="M1930.914,1504.749h-4.741v5.219a1.131,1.131,0,0,0,.3.768l1.107,1.2h1.928l1.107-1.2a1.132,1.132,0,0,0,.3-.768Z" transform="translate(-1918.556 -1482.563)"/><path class="k" d="M1935.421,1504.749v5.219a1.134,1.134,0,0,1-.3.768l-1.107,1.2h1.3l1.107-1.2a1.134,1.134,0,0,0,.3-.768v-5.219Z" transform="translate(-1924.36 -1482.563)"/><rect class="l" width="11.635" height="2.188" rx="1.094" transform="translate(3.619 40.911)"/><path class="m" d="M.418,0H7.685a0,0,0,0,1,0,0V.837a0,0,0,0,1,0,0H.418A.418.418,0,0,1,0,.418v0A.418.418,0,0,1,.418,0Z" transform="translate(9.327 41.58)"/><path class="n" d="M1965.943,1559.83a11.815,11.815,0,0,0,3.456-2.11c.082-.086.163-.172.243-.26l-2.3-2.84a3.264,3.264,0,0,0-2.482-1.141h0c-1.3,0-2.221.806-2.167,1.843l1.842.458Z" transform="translate(-1945.583 -1518.628)"/><rect class="o" width="7.169" height="14.188" transform="translate(6.321 8.146)"/><path class="p" d="M.914,0H17.469a.914.914,0,0,1,.914.914V2.048a0,0,0,0,1,0,0H0a0,0,0,0,1,0,0V.914A.914.914,0,0,1,.914,0Z" transform="translate(0.714 31.187)"/><path class="p" d="M0,0H4.542a0,0,0,0,1,0,0V.146A1.337,1.337,0,0,1,3.205,1.482H1.337A1.337,1.337,0,0,1,0,.146V0A0,0,0,0,1,0,0Z" transform="translate(1.348 48.841)"/><path class="p" d="M0,0H4.542a0,0,0,0,1,0,0V.146A1.337,1.337,0,0,1,3.205,1.482H1.337A1.337,1.337,0,0,1,0,.146V0A0,0,0,0,1,0,0Z" transform="translate(21.239 48.841)"/><path class="j" d="M1923.287,1563.183h-.893l-4.242-8.368a2.437,2.437,0,0,0-2.174-1.336h0a2.438,2.438,0,0,0-2.438,2.438v7.266h-14.924a1.747,1.747,0,0,0-1.747,1.747v2.539h26.418a2.143,2.143,0,0,0,2.143-2.143h0A2.142,2.142,0,0,0,1923.287,1563.183Z" transform="translate(-1896.869 -1518.628)"/><circle class="n" cx="3.127" cy="3.127" r="3.127" transform="translate(11.449 16.996) rotate(-83.117)"/><circle class="p" cx="3.127" cy="3.127" r="3.127" transform="matrix(0.857, -0.516, 0.516, 0.857, 9.989, 12.655)"/><circle class="n" cx="1.865" cy="1.865" r="1.865" transform="translate(16.613 17.818)"/><circle class="p" cx="1.865" cy="1.865" r="1.865" transform="translate(16.189 17.394)"/><circle class="n" cx="1.043" cy="1.043" r="1.043" transform="translate(16.69 19.82) rotate(-67.369)"/><circle class="p" cx="1.321" cy="1.321" r="1.321" transform="translate(17.789 35.971)"/><circle class="q" cx="0.588" cy="0.588" r="0.588" transform="translate(18.522 36.704)"/><circle class="p" cx="0.917" cy="0.917" r="0.917" transform="translate(17.707 42.842) rotate(-75.575)"/><circle class="n" cx="0.649" cy="0.649" r="0.649" transform="translate(1.373 46.05)"/><circle class="n" cx="0.649" cy="0.649" r="0.649" transform="translate(25.525 46.05)"/><circle class="r" cx="1.414" cy="1.414" r="1.414" transform="translate(12.867 12.308)"/><path class="n" d="M1975.307,1586.244h-6.941l6.127-1.6Z" transform="translate(-1949.782 -1541.688)"/><rect class="i" width="5.288" height="1.299" transform="translate(7.343 24.703)"/><rect class="s" width="8.814" height="0.693" transform="translate(5.467 30.494)"/><rect class="i" width="1.928" height="0.462" transform="translate(9.023 29.375)"/><rect class="e" width="1.171" height="13.766" transform="translate(7.427 8.35)"/><rect class="t" width="4.347" height="6.165" transform="translate(7.732 0.698)"/><rect class="p" width="5.039" height="0.698" transform="translate(7.386)"/><path class="p" d="M1.384,0h4.4A1.384,1.384,0,0,1,7.169,1.384v.357a0,0,0,0,1,0,0H0a0,0,0,0,1,0,0V1.384A1.384,1.384,0,0,1,1.384,0Z" transform="translate(6.321 6.608)"/><rect class="p" width="7.169" height="1.741" transform="translate(6.321 22.115)"/></g><circle class="e" cx="2.067" cy="2.067" r="2.067" transform="translate(1830.708 1435.055) rotate(-76.717)"/><g transform="translate(1873.167 1429.703)"><path class="u" d="M2015.709,1459.046l-4.774,4.775v13.252a1.2,1.2,0,0,0,1.2,1.2h11.189a1.2,1.2,0,0,0,1.2-1.2v-16.83a1.2,1.2,0,0,0-1.2-1.2Z" transform="translate(-2010.935 -1459.046)"/><path class="v" d="M2018.313,1483.466v.952h9.747v-.952Zm0,3.264h6.716v-.952h-6.716Z" transform="translate(-2016.395 -1477.119)"/><path class="v" d="M2010.935,1463.821h3.469a1.305,1.305,0,0,0,1.305-1.306v-3.469Z" transform="translate(-2010.935 -1459.046)"/></g><path class="e" d="M2056.329,1543.47a.566.566,0,1,1-.566-.566A.566.566,0,0,1,2056.329,1543.47Z" transform="translate(-170.525 -91.404)"/><circle class="e" cx="1.194" cy="1.194" r="1.194" transform="translate(1875.442 1464.397) rotate(-5.655)"/></g></g></svg>