<svg xmlns="http://www.w3.org/2000/svg" xmlns:xlink="http://www.w3.org/1999/xlink" width="70" height="70" viewBox="0 0 70 70"><defs><style>.a{fill:#fff;}.b{clip-path:url(#g);}.c{fill:#ff1b6a;}.d{fill:rgba(255,255,255,0);}.e{fill:none;}.f{filter:url(#e);}.g{filter:url(#c);}.h{filter:url(#a);}</style><filter id="a" x="9" y="10" width="52" height="52" filterUnits="userSpaceOnUse"><feOffset dy="2" input="SourceAlpha"/><feGaussianBlur stdDeviation="2" result="b"/><feFlood flood-opacity="0.2"/><feComposite operator="in" in2="b"/><feComposite in="SourceGraphic"/></filter><filter id="c" x="0" y="0" width="70" height="70" filterUnits="userSpaceOnUse"><feOffset dy="1" input="SourceAlpha"/><feGaussianBlur stdDeviation="5" result="d"/><feFlood flood-opacity="0.122"/><feComposite operator="in" in2="d"/><feComposite in="SourceGraphic"/></filter><filter id="e" x="7.5" y="10.5" width="55" height="55" filterUnits="userSpaceOnUse"><feOffset dy="4" input="SourceAlpha"/><feGaussianBlur stdDeviation="2.5" result="f"/><feFlood flood-opacity="0.141"/><feComposite operator="in" in2="f"/><feComposite in="SourceGraphic"/></filter><clipPath id="g"><circle class="a" cx="20" cy="20" r="20"/></clipPath></defs><g transform="translate(15 14)"><g transform="translate(-109)"><g class="h" transform="matrix(1, 0, 0, 1, 94, -14)"><rect class="a" width="40" height="40" rx="20" transform="translate(15 14)"/></g><g class="g" transform="matrix(1, 0, 0, 1, 94, -14)"><rect class="a" width="40" height="40" rx="20" transform="translate(15 14)"/></g><g class="f" transform="matrix(1, 0, 0, 1, 94, -14)"><rect class="a" width="40" height="40" rx="20" transform="translate(15 14)"/></g></g><g class="b"><rect class="c" width="40" height="40"/></g><g class="b"><rect class="d"/></g><g transform="translate(8 8)"><rect class="e" width="24" height="24"/><path class="a" d="M14,8H8v6H6V8H0V6H6V0H8V6h6Z" transform="translate(5 5)"/></g></g></svg>